# AST/ASF file generated using VICON BodyLanguage
# -----------------------------------------------
:version 1.10
:name VICON
:units
  mass 1.0
  length 0.45
  angle deg
:documentation
   .ast/.asf automatically generated from VICON data using
   VICON BodyBuilder and BodyLanguage model FoxedUp or BRILLIANT.MOD
:root
   order TX TY TZ RX RY RZ
   axis XYZ
   position 0 0 0  
   orientation 0 0 0 
:bonedata
  begin
     id 1 
     name lhipjoint
     direction 0.537252 -0.787203 0.302774 
     length 2.29576 
     axis 0 0 0  XYZ
  end
  begin
     id 2 
     name lfemur
     direction 0.34202 -0.939693 0  
     length 7.31114  
     axis 0 0 20  XYZ
    dof rx ry rz
    limits (-160.0 20.0)
           (-70.0 70.0)
           (-60.0 70.0)
  end
  begin
     id 3 
     name ltibia
     direction 0.34202 -0.939693 0   
     length 8.36008   
     axis 0 0 20   XYZ
    dof rx
    limits (-10.0 170.0)
  end
  begin
     id 4 
     name lfoot
     direction 0.0969116 -0.266263 0.959016   
     length 2.16704   
     axis -90 7.62852e-016 20   XYZ
    dof rx rz
    limits (-45.0 90.0)
           (-70.0 20.0)
  end
  begin
     id 5 
     name ltoes
     direction 1.53563e-011 -4.21779e-011 1   
     length 1.08338   
     axis -90 7.62852e-016 20   XYZ
    dof rx
    limits (-90.0 20.0)
  end
  begin
     id 6 
     name rhipjoint
     direction -0.588228 -0.754791 0.290308   
     length 2.39434  
     axis 0 0 0  XYZ 
  end
  begin
     id 7 
     name rfemur
     direction -0.34202 -0.939693 0   
     length 7.45207   
     axis 0 0 -20   XYZ
    dof rx ry rz
    limits (-160.0 20.0)
           (-70.0 70.0)
           (-70.0 60.0)
  end
  begin
     id 8 
     name rtibia
     direction -0.34202 -0.939693 0   
     length 8.03565   
     axis 0 0 -20   XYZ
    dof rx
    limits (-10.0 170.0)
 end
 begin
     id 9 
     name rfoot
     direction -0.107009 -0.294004 0.949795   
     length 2.11509  
     axis -90 -7.62852e-016 -20   XYZ
    dof rx rz
    limits (-45.0 90.0)
           (-20.0 70.0)
  end
  begin
     id 10 
     name rtoes
     direction -1.53533e-011 -4.22004e-011 1   
     length 1.05493   
     axis -90 -7.62852e-016 -20   XYZ
    dof rx
    limits (-90.0 20.0)
  end
  begin
     id 11 
     name lowerback
     direction -0.0115208 0.997969 -0.0626515   
     length 2.03153   
     axis 0 0 0   XYZ
    dof rx ry rz
    limits (-20.0 45.0)
           (-30.0 30.0)
           (-30.0 30.0)
  end
  begin
     id 12 
     name upperback
     direction -0.00423475 0.999974 -0.00583614   
     length 2.03619   
     axis 0 0 0   XYZ
    dof rx ry rz
    limits (-20.0 45.0)
           (-30.0 30.0)
           (-30.0 30.0)
  end
  begin
     id 13 
     name thorax
     direction 0.00289429 0.999728 0.0231573   
     length 2.03921   
     axis 0 0 0   XYZ
    dof rx ry rz
    limits (-20.0 45.0)
           (-30.0 30.0)
           (-30.0 30.0)
  end
  begin
     id 14 
     name lowerneck
     direction 0.0188995 0.987777 0.154721   
     length 1.78836   
     axis 0 0 0   XYZ
    dof rx ry rz
    limits (-20.0 45.0)
           (-30.0 30.0)
           (-30.0 30.0)
  end
  begin
     id 15 
     name upperneck
     direction -0.00612612 0.992995 -0.118   
     length 1.81789   
     axis 0 0 0   XYZ
    dof rx ry rz
    limits (-20.0 45.0)
           (-30.0 30.0)
           (-30.0 30.0)
  end
  begin
     id 16
     name head
     direction -0.00420226 0.998397 -0.0564482  
     length 1.82234  
     axis 0 0 0   XYZ
    dof rx ry rz
    limits (-20.0 45.0)
           (-30.0 30.0)
           (-30.0 30.0)
  end
  begin
     id 17 
     name lclavicle
     direction 0.916488 0.396539 0.0529676  
     length 3.51732  
     axis 0 0 0   XYZ
    dof ry rz
    limits (-20.0 10.0)
           (0.0 20.0)
  end
  begin
     id 18 
     name lhumerus
     direction 1 -4.4896e-011 8.36962e-028   
     length 5.45077   
     axis 180 -30 -90   XYZ
    dof rx ry rz
    limits (-60.0 90.0)
           (-90.0 90.0)
           (-90.0 90.0)
  end
  begin
     id 19
     name lradius
     direction 1 -4.48962e-011 3.01407e-027   
     length 3.05488   
     axis 180 -30 -90   XYZ
    dof rx
    limits (-10.0 170.0)
  end
  begin
     id 20
     name lwrist
     direction 1 -4.49002e-011 4.72961e-027   
     length 1.52744   
     axis -2.72261e-015 90 90   XYZ
    dof ry
    limits (-180.0 0.0)
 end
  begin
     id 21 
     name lhand
     direction 1 -4.4899e-011 9.45681e-027   
     length 0.638818   
     axis -6.0311e-015 90 90   XYZ
    dof rx rz
    limits (-90.0 90.0)
           (-45.0 45.0)
  end
  begin
     id 22 
     name lfingers
     direction 1 -4.48871e-011 1.88632e-026   
     length 0.515032   
     axis -1.20625e-014 90 90   XYZ
    dof rx
    limits (0.0 90.0)
  end
  begin
     id 23
     name lthumb
     direction 0.707107 -6.34964e-011 0.707107   
     length 0.739485   
     axis -90 45 6.32835e-014   XYZ
    dof rx rz
    limits (-45.0 45.0)
           (-45.0 45.0)
  end
  begin
     id 24 
     name rclavicle
     direction -0.949427 0.303202 0.0815894   
     length 3.76167  
     axis 0 0 0   XYZ 
    dof ry rz
    limits (-10.0 20.0)
           (-20.0 0.0)
  end
  begin
     id 25 
     name rhumerus
     direction -1 -4.48971e-011 -6.43969e-018  
     length 4.88702   
     axis 180 30 90   XYZ
    dof rx ry rz
    limits (-90.0 60.0)
           (-90.0 90.0)
           (-90.0 90.0)
  end
  begin
     id 26 
     name rradius
     direction -1 -4.48987e-011 5.46662e-027   
     length 3.22603   
     axis 180 30 90   XYZ
    dof rx
    limits (-10.0 170.0)
  end
  begin
     id 27 
     name rwrist
     direction -1 -4.48956e-011 4.72476e-027   
     length 1.61302   
     axis -2.72261e-015 -90 -90   XYZ
    dof ry
    limits (-180.0 0.0)
  end
  begin
     id 28
     name rhand
     direction -1 -4.4889e-011 9.43571e-027   
     length 0.716293   
     axis -6.0311e-015 -90 -90   XYZ
    dof rx rz
    limits (-90.0 90.0)
           (-45.0 45.0)
  end
  begin
     id 29
     name rfingers
     direction -1 -4.48887e-011 1.88701e-026   
     length 0.577494   
     axis -1.20625e-014 -90 -90   XYZ
    dof rx
    limits (0.0 90.0)
  end
  begin
     id 30
     name rthumb
     direction -0.707107 -6.34825e-011 0.707107   
     length 0.829169   
     axis -90 -45 -6.32835e-014   XYZ
    dof rx rz
    limits (-45.0 45.0)
           (-45.0 45.0)
  end
:hierarchy
  begin
    root lhipjoint rhipjoint lowerback
    lhipjoint lfemur
    lfemur ltibia
    ltibia lfoot
    lfoot ltoes
    rhipjoint rfemur
    rfemur rtibia
    rtibia rfoot
    rfoot rtoes
    lowerback upperback
    upperback thorax
    thorax lowerneck lclavicle rclavicle
    lowerneck upperneck
    upperneck head
    lclavicle lhumerus
    lhumerus lradius
    lradius lwrist
    lwrist lhand lthumb
    lhand lfingers
    rclavicle rhumerus
    rhumerus rradius
    rradius rwrist
    rwrist rhand rthumb
    rhand rfingers
  end

#!OML:ASF F:\VICON\USERDATA\INSTALL\rory3\rory3.ASF
:FULLY-SPECIFIED
:DEGREES
186
root -0.296547 13.7804 -0.300158 234.126 112.312 198.071
lowerback 31.528 -0.556785 6.85732
upperback 8.29076 2.315 3.16762
thorax -7.71252 1.24917 -1.26156
lowerneck -18.1096 -12.5496 -5.97475
upperneck 7.33224 -17.1726 12.8368
head 6.82976 -7.59651 2.95355
rclavicle -4.45278e-014 -1.01778e-013
rhumerus 29.7413 -16.3288 -65.7729
rradius 55.9637
rwrist -187.36
rhand -22.571 -4.61612
rfingers 7.12502
rthumb 3.85733 -34.561
lclavicle -4.45278e-014 -1.01778e-013
lhumerus -29.9874 -15.5714 74.0047
lradius 101.272
lwrist 5.91993
lhand -17.5434 24.4232
lfingers 7.12502
lthumb 8.71093 54.2235
rfemur -103.38 -16.0603 22.1278
rtibia 93.4611
rfoot -17.4227 22.258
rtoes -4.18537
lfemur -105.282 29.2911 -54.0529
ltibia 100.762
lfoot -18.0965 -18.5503
ltoes -13.1875
187
root -0.299974 13.7075 -0.289632 234.238 112.294 198.258
lowerback 31.7251 -0.500494 6.87048
upperback 8.28166 2.41336 3.19563
thorax -7.80963 1.29182 -1.27695
lowerneck -18.0622 -12.633 -5.97805
upperneck 7.21106 -17.2642 12.7767
head 6.78472 -7.65435 2.92683
rclavicle -3.18055e-015 1.51076e-014
rhumerus 30.452 -16.9043 -65.8232
rradius 55.2543
rwrist -187.341
rhand -22.4622 -4.60986
rfingers 7.12502
rthumb 3.96242 -34.5528
lclavicle -3.18055e-015 1.51076e-014
lhumerus -29.9434 -15.3979 73.8807
lradius 101.273
lwrist 6.01064
lhand -17.6539 24.6604
lfingers 7.12502
lthumb 8.60438 54.4651
rfemur -104.024 -16.2153 22.2548
rtibia 94.3576
rfoot -17.2822 22.4021
rtoes -4.54907
lfemur -105.84 29.4289 -54.1223
ltibia 101.541
lfoot -17.9654 -18.7891
ltoes -13.3086
188
root -0.301534 13.6369 -0.281705 234.342 112.263 198.439
lowerback 32.2025 -0.519033 7.00405
upperback 7.83473 2.49082 3.11714
thorax -7.77843 1.31545 -1.34214
lowerneck -17.9567 -12.6978 -5.92791
upperneck 7.06055 -17.3342 12.6672
head 6.709 -7.70815 2.88483
rclavicle 1.90833e-014 4.85035e-014
rhumerus 31.1663 -17.4555 -65.9423
rradius 54.5417
rwrist -187.193
rhand -22.4331 -4.62451
rfingers 7.12502
rthumb 3.99056 -34.5669
lclavicle 1.90833e-014 4.85035e-014
lhumerus -29.999 -15.2278 73.736
lradius 101.341
lwrist 6.15822
lhand -17.8644 24.9177
lfingers 7.12502
lthumb 8.40125 54.7306
rfemur -104.675 -16.4064 22.3874
rtibia 95.2824
rfoot -17.2482 22.5403
rtoes -4.78356
lfemur -106.397 29.5663 -54.2363
ltibia 102.307
lfoot -17.8829 -18.9396
ltoes -13.8767
189
root -0.303438 13.5624 -0.273913 234.345 112.164 198.55
lowerback 32.4356 -0.577057 7.19061
upperback 7.83566 2.49858 3.06033
thorax -7.85456 1.31678 -1.50449
lowerneck -18.0348 -12.7208 -5.82137
upperneck 7.05387 -17.3773 12.602
head 6.70716 -7.7284 2.83998
rclavicle 7.63333e-014 3.02153e-014
rhumerus 31.9934 -18.0567 -66.3378
rradius 53.8773
rwrist -186.716
rhand -22.4164 -4.64306
rfingers 7.12502
rthumb 4.00664 -34.5851
lclavicle 7.63333e-014 3.02153e-014
lhumerus -30.0115 -15.0041 73.433
lradius 101.429
lwrist 6.30351
lhand -18.055 25.0927
lfingers 7.12502
lthumb 8.21721 54.9129
rfemur -105.253 -16.5864 22.5947
rtibia 96.1787
rfoot -17.3323 22.5431
rtoes -4.79592
lfemur -106.951 29.7265 -54.2817
ltibia 103.095
lfoot -17.8884 -19.079
ltoes -14.4993
190
root -0.304734 13.4892 -0.262339 234.374 112.115 198.753
lowerback 32.6577 -0.632697 7.25286
upperback 7.86542 2.47375 3.03915
thorax -7.90525 1.30609 -1.55246
lowerneck -18.0603 -12.7262 -5.86238
upperneck 7.05571 -17.3705 12.5733
head 6.71151 -7.72745 2.83668
rclavicle 4.45278e-014 -3.81667e-014
rhumerus 32.879 -18.5279 -66.6976
rradius 53.151
rwrist -186.298
rhand -22.3648 -4.67555
rfingers 7.12502
rthumb 4.05653 -34.6167
lclavicle 4.45278e-014 -3.81667e-014
lhumerus -30.0632 -14.7094 73.1685
lradius 101.391
lwrist 6.30673
lhand -18.507 25.228
lfingers 7.12502
lthumb 7.78105 55.0648
rfemur -105.738 -16.7776 22.7422
rtibia 97.0791
rfoot -17.5651 22.4692
rtoes -5.83657
lfemur -107.402 29.9669 -54.3103
ltibia 103.881
lfoot -17.6071 -19.4761
ltoes -13.8942
191
root -0.307587 13.4198 -0.250075 234.127 112.075 198.75
lowerback 32.8552 -0.602641 7.15607
upperback 7.98413 2.52304 3.1986
thorax -7.86201 1.33696 -1.35142
lowerneck -18.0003 -12.7516 -6.06565
upperneck 6.8685 -17.3289 12.4926
head 6.64568 -7.73165 2.85439
rclavicle 3.18055e-015 2.94201e-014
rhumerus 33.8709 -18.9288 -66.8511
rradius 52.4399
rwrist -185.946
rhand -22.3038 -4.72042
rfingers 7.12502
rthumb 4.11541 -34.6604
lclavicle 3.18055e-015 2.94201e-014
lhumerus -30.136 -14.2605 73.159
lradius 101.226
lwrist 6.26786
lhand -19.1735 25.0492
lfingers 7.12502
lthumb 7.13767 54.9088
rfemur -106.131 -16.8799 22.9303
rtibia 97.9791
rfoot -18.0629 22.2232
rtoes -7.92443
lfemur -107.854 30.3364 -54.3264
ltibia 104.665
lfoot -17.3093 -19.8321
ltoes -13.342
192
root -0.310177 13.3504 -0.234258 233.661 112.089 198.548
lowerback 33.2705 -0.531342 7.12074
upperback 8.00372 2.65386 3.26517
thorax -7.99792 1.39486 -1.31322
lowerneck -17.8825 -12.8003 -6.13719
upperneck 6.71588 -17.3477 12.362
head 6.57077 -7.76569 2.83188
rclavicle -1.59028e-014 -4.05521e-014
rhumerus 34.6599 -19.4669 -67.1115
rradius 51.8383
rwrist -185.385
rhand -22.3643 -4.49401
rfingers 7.12502
rthumb 4.05701 -34.4351
lclavicle -1.59028e-014 -4.05521e-014
lhumerus -30.3162 -13.996 73.0598
lradius 101.091
lwrist 6.13229
lhand -19.7682 24.934
lfingers 7.12502
lthumb 6.5636 54.8123
rfemur -106.439 -16.8835 23.0896
rtibia 98.8284
rfoot -18.4358 22.0934
rtoes -9.39899
lfemur -108.419 30.8614 -54.4633
ltibia 105.469
lfoot -17.1639 -20.0308
ltoes -13.7989
193
root -0.31104 13.2822 -0.226051 233.641 111.984 198.735
lowerback 33.5518 -0.595824 7.28693
upperback 8.02921 2.66353 3.26856
thorax -8.06653 1.39878 -1.40212
lowerneck -17.9152 -12.8267 -6.04047
upperneck 6.62715 -17.3624 12.1304
head 6.51527 -7.79162 2.74725
rclavicle 2.8625e-014 -1.35174e-014
rhumerus 35.5727 -20.0554 -67.5134
rradius 51.1034
rwrist -184.813
rhand -22.3412 -4.54779
rfingers 7.12502
rthumb 4.07928 -34.4885
lclavicle 2.8625e-014 -1.35174e-014
lhumerus -30.3582 -13.7259 72.847
lradius 100.935
lwrist 6.03096
lhand -20.1354 25.0977
lfingers 7.12502
lthumb 6.20912 54.9867
rfemur -106.836 -17.1452 23.2515
rtibia 99.6254
rfoot -18.4799 22.2951
rtoes -9.60048
lfemur -108.929 31.1143 -54.5859
ltibia 106.248
lfoot -17.0556 -20.1676
ltoes -14.3946
194
root -0.310897 13.213 -0.2314 234.217 111.775 199.462
lowerback 33.6345 -0.789593 7.5979
upperback 8.0467 2.54403 3.27612
thorax -8.06744 1.34476 -1.51351
lowerneck -17.9295 -12.8266 -5.92613
upperneck 6.54222 -17.342 11.8669
head 6.45029 -7.80299 2.65701
rclavicle 3.18055e-015 -8.11041e-014
rhumerus 36.4899 -20.592 -67.8592
rradius 50.3813
rwrist -184.211
rhand -22.315 -4.74173
rfingers 7.12502
rthumb 4.10459 -34.6819
lclavicle 3.18055e-015 -8.11041e-014
lhumerus -30.3833 -13.3496 72.7019
lradius 100.757
lwrist 6.03434
lhand -20.3857 25.4111
lfingers 7.12502
lthumb 5.96745 55.307
rfemur -107.408 -17.7066 23.4592
rtibia 100.379
rfoot -18.4143 22.4908
rtoes -10.1207
lfemur -109.293 30.9628 -54.6356
ltibia 106.959
lfoot -16.7419 -20.2875
ltoes -14.2345
195
root -0.31239 13.1415 -0.232737 234.686 111.639 200.107
lowerback 33.7527 -0.904072 7.75184
upperback 8.04893 2.48067 3.33661
thorax -8.10739 1.31516 -1.50801
lowerneck -17.7779 -12.8333 -5.96256
upperneck 6.34093 -17.302 11.681
head 6.34093 -7.81448 2.62559
rclavicle -6.99722e-014 3.26007e-014
rhumerus 37.336 -21.0625 -68.1038
rradius 49.6907
rwrist -183.685
rhand -22.2319 -4.84246
rfingers 7.12502
rthumb 4.18487 -34.7811
lclavicle -6.99722e-014 3.26007e-014
lhumerus -30.5305 -12.9237 72.6398
lradius 100.614
lwrist 6.00154
lhand -20.8058 25.5359
lfingers 7.12502
lthumb 5.56182 55.4429
rfemur -107.981 -18.1839 23.6345
rtibia 101.181
rfoot -18.4362 22.5999
rtoes -10.9519
lfemur -109.692 30.9401 -54.7105
ltibia 107.684
lfoot -16.349 -20.5007
ltoes -13.7877
196
root -0.316556 13.0675 -0.223257 235.121 111.693 200.727
lowerback 33.987 -0.886191 7.63997
upperback 8.0007 2.49682 3.34899
thorax -8.25504 1.31759 -1.44587
lowerneck -17.6863 -12.8715 -6.03285
upperneck 6.27744 -17.3231 11.5968
head 6.30443 -7.83941 2.61359
rclavicle 1.59028e-014 -6.36111e-015
rhumerus 38.0449 -21.5115 -68.2805
rradius 49.0277
rwrist -183.323
rhand -22.09 -4.80659
rfingers 7.12502
rthumb 4.32182 -34.7425
lclavicle 1.59028e-014 -6.36111e-015
lhumerus -30.6976 -12.5772 72.4907
lradius 100.415
lwrist 5.89394
lhand -21.1226 25.5207
lfingers 7.12502
lthumb 5.25597 55.4355
rfemur -108.576 -18.5016 23.5946
rtibia 102.039
rfoot -18.2048 22.7504
rtoes -10.8883
lfemur -110.207 31.0955 -54.9737
ltibia 108.43
lfoot -15.9088 -20.73
ltoes -13.2257
197
root -0.318592 12.9893 -0.213682 235.387 111.72 201.161
lowerback 33.9474 -0.892967 7.69037
upperback 8.1607 2.49252 3.27614
thorax -8.05783 1.33091 -1.54389
lowerneck -17.7783 -12.9299 -5.94725
upperneck 6.11424 -17.4025 11.6002
head 6.26625 -7.88 2.59096
rclavicle -2.8625e-014 -3.57812e-014
rhumerus 39.0457 -22.2055 -68.848
rradius 48.3714
rwrist -182.745
rhand -22.071 -4.77761
rfingers 7.12502
rthumb 4.34017 -34.7131
lclavicle -2.8625e-014 -3.57812e-014
lhumerus -30.5142 -12.2603 72.1548
lradius 100.17
lwrist 5.92011
lhand -21.4582 25.5297
lfingers 7.12502
lthumb 4.93192 55.4523
rfemur -109.18 -18.7851 23.6095
rtibia 102.924
rfoot -17.8395 23.031
rtoes -10.3025
lfemur -110.739 31.32 -55.2096
ltibia 109.193
lfoot -15.4366 -21.0452
ltoes -12.2058
198
root -0.31835 12.9073 -0.208091 235.53 111.61 201.33
lowerback 33.7825 -0.929222 7.93339
upperback 8.23239 2.50604 3.2423
thorax -7.9 1.34505 -1.70726
lowerneck -17.7859 -12.9863 -5.83745
upperneck 6.01063 -17.4826 11.5246
head 6.22329 -7.92691 2.5444
rclavicle 6.36111e-015 1.74931e-014
rhumerus 39.9104 -22.861 -69.4003
rradius 47.7502
rwrist -182.051
rhand -22.1673 -4.68239
rfingers 7.12502
rthumb 4.24724 -34.6198
lclavicle 6.36111e-015 1.74931e-014
lhumerus -30.4896 -12.0235 71.8479
lradius 99.9801
lwrist 6.18847
lhand -21.948 25.6237
lfingers 7.12502
lthumb 4.45901 55.5567
rfemur -109.888 -19.0293 23.8714
rtibia 103.766
rfoot -17.5049 23.3089
rtoes -9.77918
lfemur -111.457 31.4705 -55.3368
ltibia 110.006
lfoot -15.2241 -21.3482
ltoes -12.5563
199
root -0.318729 12.8243 -0.202745 235.451 111.463 201.31
lowerback 33.6577 -0.972672 8.1529
upperback 8.28028 2.51568 3.275
thorax -7.78798 1.35488 -1.78761
lowerneck -17.7695 -12.9988 -5.80955
upperneck 5.99569 -17.4889 11.4068
head 6.20129 -7.93952 2.50605
rclavicle -3.18055e-014 -5.48646e-014
rhumerus 40.616 -23.2573 -69.6902
rradius 47.2146
rwrist -181.513
rhand -22.19 -4.52873
rfingers 7.12502
rthumb 4.22531 -34.4666
lclavicle -3.18055e-014 -5.48646e-014
lhumerus -30.6523 -11.6351 71.641
lradius 99.743
lwrist 6.42412
lhand -22.4514 25.542
lfingers 7.12502
lthumb 3.97291 55.4847
rfemur -110.539 -19.2342 24.2314
rtibia 104.611
rfoot -17.4553 23.5182
rtoes -10.1198
lfemur -112.18 31.7033 -55.3702
ltibia 110.814
lfoot -14.944 -21.727
ltoes -12.5272
